<svg id="Layer_1" data-name="Layer 1" xmlns="http://www.w3.org/2000/svg"
     viewBox="0 0 8.04 18.94">
    <defs>
        <style>.cls-1{fill:#fff;}</style>
    </defs>
    <path class="cls-1"
          d="M7.59,15.28l-.26.25a9.86,9.86,0,0,1-2,1.6.35.35,0,0,1,0-.06,32.29,32.29,0,0,1,1.47-5.88,19.93,19.93,0,0,0,.92-3.55,1,1,0,0,0-.37-.82c-.59-.49-1.71-.36-3.08.41A11.49,11.49,0,0,0,1.65,9.5l-.28.3,1.2.92.23-.22A12.39,12.39,0,0,1,4.33,9.12,1.2,1.2,0,0,1,4.64,9a1.9,1.9,0,0,1-.08.35C3.14,13.93,2.45,16.77,2.45,18a1.57,1.57,0,0,0,.38,1.11,1.37,1.37,0,0,0,1.06.43A3.44,3.44,0,0,0,5.51,19a19.23,19.23,0,0,0,2.88-2.36l.28-.27Z"
          transform="translate(-1.37 -0.58)"/>
    <path class="cls-1"
          d="M9,1a1.56,1.56,0,0,0-2.23.16,1.93,1.93,0,0,0-.5,1.33,1.47,1.47,0,0,0,.38,1,1.31,1.31,0,0,0,1,.41,1.65,1.65,0,0,0,1.24-.59A2,2,0,0,0,9.41,2,1.41,1.41,0,0,0,9,1Z"
          transform="translate(-1.37 -0.58)"/>
</svg>
